<?xml version="1.0" standalone="no"?>
<!DOCTYPE svg PUBLIC "-//W3C//DTD SVG 20010904//EN"
 "http://www.w3.org/TR/2001/REC-SVG-20010904/DTD/svg10.dtd">
<svg version="1.0" xmlns="http://www.w3.org/2000/svg"
 width="1220.000000pt" height="1124.000000pt" viewBox="0 0 1220.000000 1124.000000"
 preserveAspectRatio="xMidYMid meet">

<g transform="translate(0.000000,1124.000000) scale(0.100000,-0.100000)"
fill="#000000" stroke="none">
<path d="M11221 11181 c-12 -8 -12 -12 -2 -25 16 -19 31 -12 31 15 0 21 -7 23
-29 10z"/>
<path d="M11025 10880 c-3 -5 -1 -10 4 -10 6 0 11 5 11 10 0 6 -2 10 -4 10 -3
0 -8 -4 -11 -10z"/>
<path d="M11673 9975 c-3 -9 -3 -18 0 -22 10 -10 37 6 37 22 0 20 -29 20 -37
0z"/>
<path d="M11240 9645 c-8 -9 -8 -15 -2 -15 12 0 26 19 19 26 -2 2 -10 -2 -17
-11z"/>
<path d="M11610 8925 c0 -9 5 -15 11 -13 6 2 11 8 11 13 0 5 -5 11 -11 13 -6
2 -11 -4 -11 -13z"/>
<path d="M540 8745 c0 -8 6 -15 14 -15 22 0 28 17 10 24 -22 9 -24 8 -24 -9z"/>
<path d="M11406 8644 c-9 -22 -8 -24 9 -24 8 0 15 9 15 20 0 24 -15 27 -24 4z"/>
<path d="M11155 8600 c-8 -12 20 -24 35 -15 6 3 8 11 5 16 -8 12 -32 12 -40
-1z"/>
<path d="M830 8535 c0 -9 5 -15 11 -13 6 2 11 8 11 13 0 5 -5 11 -11 13 -6 2
-11 -4 -11 -13z"/>
<path d="M1115 8330 c3 -5 10 -10 16 -10 5 0 9 5 9 10 0 6 -7 10 -16 10 -8 0
-12 -4 -9 -10z"/>
<path d="M10480 8220 c0 -5 5 -10 10 -10 6 0 10 5 10 10 0 6 -4 10 -10 10 -5
0 -10 -4 -10 -10z"/>
<path d="M5311 7593 c-7 -3 -34 -26 -60 -52 -26 -25 -66 -59 -89 -74 -43 -29
-56 -62 -28 -73 8 -3 42 15 76 40 34 25 80 51 101 56 42 12 64 44 52 77 -11
29 -26 36 -52 26z"/>
<path d="M7290 7433 c-25 -9 -72 -29 -104 -45 l-59 -29 -29 31 -28 31 -87 -7
c-93 -7 -113 -15 -113 -45 0 -26 34 -41 87 -38 33 2 48 -1 58 -14 13 -18 28
-181 26 -287 -2 -56 -5 -68 -27 -87 -17 -16 -38 -23 -64 -23 -29 0 -43 -6 -54
-22 -26 -37 -6 -43 149 -43 132 0 144 2 149 18 4 16 11 18 45 12 39 -6 41 -6
41 19 0 18 -4 24 -15 20 -9 -4 -15 0 -15 10 0 12 -10 16 -41 16 -69 0 -75 8
-83 110 -6 84 -5 95 18 143 46 98 186 182 186 112 0 -15 7 -39 15 -55 14 -27
20 -30 64 -30 41 0 51 4 65 25 22 33 20 47 -10 106 -19 39 -35 55 -67 70 -48
21 -48 21 -107 2z"/>
<path d="M6487 7419 c-145 -34 -200 -100 -212 -254 -6 -79 -4 -97 15 -149 26
-69 83 -130 154 -165 42 -21 58 -23 126 -18 61 4 88 11 131 36 85 47 122 97
94 124 -22 23 -65 8 -120 -41 -47 -42 -52 -44 -94 -38 -24 3 -54 6 -66 6 -51
0 -155 99 -155 149 0 19 65 30 228 37 209 8 217 12 207 97 -4 31 -11 57 -15
57 -4 0 -15 17 -23 38 -15 37 -73 92 -97 92 -6 0 -28 9 -50 20 -42 21 -64 23
-123 9z m140 -106 c71 -28 71 -28 78 -72 4 -29 3 -46 -5 -51 -21 -13 -283 -22
-313 -11 -47 18 -35 65 27 107 93 62 113 65 213 27z"/>
<path d="M5275 7363 c-27 -2 -60 -9 -72 -15 -46 -23 -16 -78 42 -78 49 0 60
-30 71 -182 4 -67 3 -76 -23 -115 -15 -24 -32 -43 -38 -43 -6 0 -16 -5 -23
-12 -10 -10 -53 -28 -104 -45 -27 -8 -85 26 -98 58 -8 19 -10 49 -6 82 3 29 3
110 -1 180 l-6 128 -31 16 c-42 22 -126 22 -159 0 -54 -35 -18 -87 60 -87 23
0 45 -5 49 -12 4 -6 8 -90 10 -186 2 -156 4 -176 22 -195 10 -12 22 -30 25
-39 4 -10 13 -18 20 -18 8 0 20 -7 27 -15 22 -27 98 -19 179 20 40 19 77 35
83 35 6 0 20 -11 32 -23 16 -17 38 -26 80 -31 67 -8 101 7 112 50 9 34 -31 78
-62 70 -13 -4 -30 1 -43 12 -20 17 -24 61 -18 217 2 58 -13 196 -23 215 -6 12
-20 19 -33 18 -12 -1 -44 -3 -72 -5z"/>
<path d="M5829 7343 l-76 -26 -29 21 c-26 19 -37 20 -98 14 -50 -5 -72 -12
-80 -25 -14 -22 2 -34 56 -43 63 -11 72 -30 77 -162 2 -65 4 -198 5 -296 l1
-179 -53 -17 c-65 -22 -72 -28 -48 -46 15 -11 47 -13 140 -10 67 3 124 5 127
5 4 1 10 8 13 17 9 24 -12 44 -48 44 -17 0 -36 4 -41 8 -17 11 -44 91 -34 98
5 3 9 23 9 45 0 52 18 58 94 32 48 -17 73 -20 116 -14 70 9 86 18 136 78 55
65 68 103 67 192 0 87 -9 135 -29 152 -8 6 -14 21 -14 33 -1 45 -102 106 -175
105 -22 0 -74 -11 -116 -26z m183 -74 c20 -13 37 -31 38 -40 0 -9 6 -22 14
-28 17 -14 48 -100 41 -112 -3 -4 -10 -33 -16 -65 -6 -31 -16 -63 -22 -71 -34
-40 -74 -73 -97 -78 -44 -10 -129 13 -170 45 l-38 30 -7 103 c-7 122 1 157 52
207 37 35 40 37 103 35 49 -2 74 -8 102 -26z"/>
<path d="M4350 7342 c-32 -15 -60 -37 -60 -48 0 -6 -9 -19 -20 -29 -22 -20
-29 -98 -10 -110 6 -3 10 -15 10 -26 0 -11 12 -31 26 -46 20 -20 31 -24 57
-18 46 9 79 8 86 -2 3 -5 31 -9 61 -9 65 1 132 -25 150 -59 13 -24 5 -85 -10
-85 -5 0 -20 -11 -32 -25 -21 -23 -32 -25 -111 -27 -103 -2 -129 11 -164 85
-33 69 -96 75 -76 7 4 -14 6 -53 4 -88 -2 -68 14 -122 38 -122 8 0 27 12 42
26 18 17 37 26 53 24 52 -5 192 -2 223 5 46 10 106 73 121 127 17 58 2 97 -57
151 -44 40 -59 43 -204 39 -55 -1 -60 1 -97 38 -22 22 -40 43 -40 48 1 4 11
20 24 36 l24 29 96 -10 c100 -11 136 -27 136 -63 0 -20 43 -42 65 -34 11 5 15
23 15 79 0 86 -12 102 -80 105 -201 8 -257 8 -270 2z"/>
<path d="M9486 6423 c-4 -5 -89 -8 -189 -9 -214 -1 -562 -18 -697 -34 -225
-26 -298 -71 -243 -150 25 -37 43 -48 93 -55 66 -10 76 -18 111 -93 32 -65 33
-70 30 -187 -3 -160 -3 -219 1 -285 1 -30 1 -104 0 -165 -1 -60 -2 -126 -2
-145 0 -19 -1 -71 -2 -115 -1 -57 4 -96 17 -132 15 -43 16 -57 7 -78 -7 -14
-12 -53 -12 -85 0 -54 -3 -61 -27 -77 -148 -93 -186 -181 -101 -233 50 -30
110 -35 222 -16 88 15 320 35 556 50 41 3 98 7 125 10 28 2 100 9 160 13 116
9 122 11 171 56 76 69 128 437 77 549 -27 58 -60 81 -105 73 -52 -10 -64 -25
-73 -90 -10 -73 -10 -208 0 -252 5 -22 4 -33 -3 -33 -6 0 -20 -20 -31 -45 -31
-69 -57 -77 -291 -86 -107 -5 -238 -11 -290 -15 -110 -7 -165 4 -200 41 -23
24 -23 29 -26 254 -2 224 -2 230 20 250 48 45 253 69 316 36 31 -16 33 -20 50
-119 18 -104 72 -157 117 -114 42 40 47 153 12 292 -7 27 -9 72 -5 109 3 34 6
67 6 72 0 29 -18 147 -24 152 -3 4 2 15 11 25 15 17 16 26 5 75 -6 31 -13 57
-14 58 -2 2 -35 6 -73 10 l-71 7 1 -129 c0 -175 -2 -178 -127 -187 -51 -4
-121 -9 -155 -12 -57 -5 -63 -4 -77 19 -21 30 -35 180 -36 358 0 119 2 138 18
152 10 10 26 17 35 17 9 0 23 14 32 30 15 29 35 41 35 20 0 -29 200 -42 236
-15 23 17 48 20 38 3 -5 -8 0 -9 17 -4 13 4 76 11 139 16 63 4 145 14 181 21
36 6 82 9 103 5 33 -6 36 -10 29 -29 -17 -45 -1 -264 23 -333 19 -53 40 -71
91 -80 l41 -6 26 51 c30 59 31 73 10 132 -9 24 -17 60 -20 79 -2 19 -8 75 -14
123 -13 119 -14 122 -83 194 -59 61 -61 63 -112 63 -28 0 -55 -3 -59 -7z
m-733 -877 c52 -19 77 -44 77 -78 0 -15 -3 -28 -8 -28 -4 0 -30 18 -57 41 -27
22 -57 45 -67 50 -10 5 -18 14 -18 19 0 14 28 12 73 -4z"/>
<path d="M7390 6393 c-30 -10 -74 -15 -132 -13 -201 4 -248 3 -356 -11 -137
-19 -165 -35 -170 -98 -5 -61 18 -91 67 -91 52 0 85 -29 110 -94 37 -100 45
-231 34 -588 -7 -236 -7 -342 1 -385 11 -58 12 -251 1 -309 -8 -44 -47 -84
-83 -84 -16 0 -37 -9 -47 -20 -10 -11 -29 -20 -42 -20 -36 0 -90 -26 -102 -48
-18 -34 -12 -59 20 -86 37 -31 93 -34 196 -10 52 12 94 14 179 9 149 -9 232
11 287 67 27 29 37 47 37 72 0 45 -28 68 -127 106 -116 44 -157 91 -156 175 2
131 17 335 25 358 6 15 23 37 39 48 26 18 48 21 216 25 l188 5 42 -59 c23 -32
47 -72 53 -88 11 -27 31 -178 30 -216 -1 -10 -2 -35 -2 -55 -2 -51 38 -236 61
-288 27 -60 55 -82 144 -110 91 -29 152 -31 222 -7 38 13 51 22 53 40 2 14 10
22 23 22 14 0 19 7 19 28 1 15 7 38 15 52 18 32 19 111 1 155 -17 40 -64 67
-109 63 -28 -3 -36 -11 -62 -62 -16 -33 -36 -62 -43 -64 -19 -6 -41 16 -67 67
-32 65 -43 110 -61 246 -12 96 -21 134 -49 194 -47 98 -46 136 3 204 20 29 42
61 48 72 6 11 28 32 49 46 57 39 69 69 73 191 3 88 2 109 -10 113 -12 5 -13
13 -4 45 9 37 8 42 -18 69 -21 22 -26 35 -21 51 5 17 -1 30 -29 59 -19 20 -44
56 -55 81 -39 89 -93 122 -231 140 -146 20 -211 21 -260 3z m238 -215 c35 -12
68 -30 73 -40 5 -10 20 -18 32 -18 17 0 31 -14 56 -54 60 -99 53 -156 -36
-289 -48 -72 -67 -85 -158 -106 -27 -7 -77 -23 -110 -37 -75 -29 -103 -30
-153 -4 -36 19 -40 19 -95 4 -46 -14 -62 -14 -86 -4 -57 23 -75 104 -45 195
15 42 15 59 4 146 -19 145 -4 169 128 204 42 10 94 15 152 13 49 -1 92 1 96 5
14 14 80 7 142 -15z"/>
<path d="M5980 6359 c-44 -9 -332 -21 -400 -17 -19 1 -53 1 -75 0 -22 0 -98
-2 -170 -3 -156 -2 -173 -8 -209 -82 -43 -86 -52 -164 -31 -262 10 -50 15 -98
11 -122 -5 -28 -1 -51 13 -85 14 -31 19 -56 15 -77 -8 -37 9 -61 41 -61 29 0
36 10 70 96 20 54 25 76 17 90 -5 11 -9 72 -8 136 2 137 11 157 91 198 41 20
63 25 134 25 112 0 173 -11 207 -37 l27 -22 -7 -231 c-7 -197 -5 -245 10 -325
12 -68 15 -122 11 -199 -4 -83 -2 -109 10 -128 13 -19 13 -30 2 -72 -10 -40
-10 -68 1 -153 18 -131 16 -159 -10 -213 -23 -48 -44 -58 -138 -70 -71 -8
-105 -24 -99 -46 4 -13 -3 -20 -24 -24 -23 -5 -31 -15 -41 -47 -16 -53 3 -88
57 -106 58 -20 220 -9 400 27 107 22 179 31 251 31 81 0 103 3 108 15 3 8 12
15 19 15 15 0 35 78 29 115 -5 34 -41 48 -144 55 -89 6 -101 9 -127 34 -17 16
-34 47 -41 74 -6 26 -19 58 -28 72 -11 16 -17 45 -17 80 0 30 -4 65 -8 78 -7
18 -5 22 12 22 19 0 19 5 14 93 -4 60 -12 105 -24 129 -17 34 -18 44 -7 107
10 60 9 90 -10 228 -12 89 -23 224 -25 310 l-2 152 90 34 c121 47 162 52 229
33 85 -25 105 -69 66 -146 -26 -51 -25 -72 5 -136 14 -29 30 -75 36 -103 8
-37 15 -51 28 -51 23 0 41 -20 41 -46 0 -13 7 -30 16 -38 14 -14 18 -14 44 -1
52 27 63 64 57 184 -20 349 -36 426 -95 450 -76 30 -315 41 -422 20z"/>
<path d="M4510 6315 c-12 -30 -23 -31 -66 -4 -30 18 -39 19 -92 9 -33 -6 -145
-14 -250 -19 -218 -11 -234 -16 -280 -88 -39 -62 -45 -84 -32 -117 15 -40 64
-56 173 -56 126 0 154 6 161 36 7 28 18 30 36 9 7 -8 17 -15 22 -15 6 0 23 -9
39 -21 24 -16 29 -28 29 -60 0 -21 9 -71 19 -111 16 -60 19 -105 18 -259 0
-126 4 -201 13 -233 11 -39 11 -63 0 -132 -12 -87 -9 -191 12 -357 13 -103 3
-149 -39 -192 -42 -41 -94 -64 -177 -77 -66 -10 -80 -9 -114 6 -54 25 -72 18
-109 -38 -44 -65 -47 -134 -7 -165 30 -23 103 -28 164 -11 51 14 618 21 723 9
62 -8 97 -7 120 0 96 32 138 171 72 237 -28 28 -77 31 -199 13 -99 -15 -161
-5 -193 29 -25 26 -25 29 -20 140 4 62 2 150 -4 195 -6 45 -13 116 -15 157 -2
41 -7 103 -10 138 -3 34 -1 76 5 92 8 23 7 33 -5 45 -13 13 -14 32 -5 142 6
71 11 181 10 246 -1 125 6 148 53 163 11 3 21 18 25 35 6 34 6 34 38 13 19
-12 31 -13 63 -5 21 6 64 10 95 10 50 -1 62 3 102 32 58 43 63 64 31 124 -14
26 -26 54 -26 61 0 8 -9 14 -19 14 -11 0 -33 8 -50 18 -25 14 -34 15 -48 4
-10 -7 -26 -15 -35 -18 -22 -8 -22 -13 -1 -36 25 -28 3 -21 -41 12 -49 37 -82
39 -98 5 -14 -32 -28 -32 -28 0 0 14 -8 29 -19 35 -27 14 -30 13 -41 -15z
m-212 -238 c2 -18 -1 -27 -11 -27 -21 0 -40 27 -33 46 10 25 41 12 44 -19z"/>
<path d="M2172 6197 c-114 -64 -144 -89 -140 -119 2 -17 15 -26 64 -40 83 -24
98 -43 102 -131 2 -40 6 -79 9 -87 6 -15 7 -37 16 -286 2 -72 7 -136 11 -142
4 -6 -3 -48 -14 -94 -23 -87 -21 -159 5 -243 7 -24 13 -109 14 -216 l1 -177
-61 -22 c-33 -13 -74 -37 -91 -53 -27 -28 -30 -35 -25 -81 4 -43 10 -55 42
-82 42 -37 97 -50 150 -35 21 5 65 7 99 4 55 -5 63 -3 88 20 14 13 42 27 61
31 42 8 49 16 70 79 16 46 15 48 -6 61 -12 8 -42 22 -67 32 -96 37 -111 73
-85 210 14 74 15 101 5 159 -7 46 -8 86 -2 116 6 29 5 69 -1 105 -6 33 -11 88
-12 124 -1 36 -8 86 -15 112 -13 45 -13 48 12 85 14 21 30 47 36 58 10 19 11
19 21 -8 6 -16 11 -33 11 -38 0 -5 15 -40 34 -77 37 -73 48 -119 71 -289 9
-62 29 -156 45 -209 17 -55 30 -119 30 -149 0 -35 7 -66 23 -96 13 -24 29 -66
36 -94 6 -27 31 -78 54 -113 39 -59 44 -63 73 -59 66 11 102 34 124 81 12 25
28 50 36 57 10 8 14 37 14 111 0 62 5 111 14 132 25 61 37 139 46 322 6 111
15 198 25 229 9 28 23 83 31 124 16 80 50 154 75 159 11 2 22 -18 39 -70 20
-61 25 -96 27 -213 5 -236 10 -297 27 -370 14 -58 15 -76 5 -107 -9 -29 -9
-49 5 -108 31 -140 16 -179 -74 -194 -73 -12 -102 -65 -57 -109 19 -20 40 -24
169 -36 117 -11 157 -11 198 -1 65 16 110 58 110 105 0 29 -4 35 -32 43 -33
10 -155 8 -166 -2 -9 -10 -62 -7 -62 3 0 5 10 11 23 14 20 6 22 12 23 74 0 37
4 100 8 139 7 57 4 97 -14 198 -13 77 -20 141 -16 163 16 89 28 257 28 378 1
116 -2 139 -26 210 -26 75 -27 84 -16 140 17 81 32 102 82 115 63 16 89 32
100 59 16 44 2 69 -45 82 -23 6 -50 18 -59 26 -14 12 -31 14 -74 10 -35 -4
-63 -1 -75 6 -14 9 -26 8 -52 -1 -18 -7 -47 -12 -63 -12 -16 0 -51 -11 -79
-25 -27 -13 -62 -25 -76 -25 -35 0 -39 -14 -39 -120 0 -55 -6 -107 -16 -136
-13 -38 -14 -51 -3 -70 10 -19 9 -28 -6 -50 -38 -59 -47 -121 -54 -409 -8
-277 -13 -318 -46 -355 -7 -8 -17 -35 -22 -60 -7 -35 -13 -46 -30 -48 -46 -7
-89 101 -117 295 -8 56 -29 143 -46 193 -26 76 -30 100 -25 144 4 30 2 69 -4
92 -6 21 -16 72 -21 113 -5 40 -17 88 -26 105 -31 60 -64 170 -64 212 0 75
-24 103 -110 129 -13 4 -36 16 -50 26 -14 9 -45 20 -70 23 -41 5 -54 1 -138
-47z m248 -398 c0 -10 3 -24 6 -33 4 -10 1 -16 -9 -16 -19 0 -27 21 -27 68 1
35 2 36 15 18 8 -11 15 -28 15 -37z m470 -1038 c0 -27 -15 -41 -41 -41 -30 0
-38 17 -17 38 14 14 58 16 58 3z"/>
<path d="M11011 3684 c0 -11 3 -14 6 -6 3 7 2 16 -1 19 -3 4 -6 -2 -5 -13z"/>
<path d="M1447 3524 c-8 -8 1 -24 14 -24 5 0 9 7 9 15 0 15 -12 20 -23 9z"/>
<path d="M11300 3480 c0 -5 5 -10 10 -10 6 0 10 5 10 10 0 6 -4 10 -10 10 -5
0 -10 -4 -10 -10z"/>
<path d="M11580 3270 c0 -5 5 -10 10 -10 6 0 10 5 10 10 0 6 -4 10 -10 10 -5
0 -10 -4 -10 -10z"/>
<path d="M1005 3190 c-3 -5 -1 -10 4 -10 6 0 11 5 11 10 0 6 -2 10 -4 10 -3 0
-8 -4 -11 -10z"/>
<path d="M760 3130 c0 -5 5 -10 10 -10 6 0 10 5 10 10 0 6 -4 10 -10 10 -5 0
-10 -4 -10 -10z"/>
<path d="M320 2800 c0 -5 5 -10 11 -10 5 0 7 5 4 10 -3 6 -8 10 -11 10 -2 0
-4 -4 -4 -10z"/>
<path d="M920 2139 c0 -5 5 -7 10 -4 6 3 10 8 10 11 0 2 -4 4 -10 4 -5 0 -10
-5 -10 -11z"/>
<path d="M10912 1361 c4 -13 18 -16 19 -4 0 4 -5 9 -11 12 -7 2 -11 -2 -8 -8z"/>
<path d="M1147 893 c-12 -12 -7 -22 8 -17 8 4 15 10 15 15 0 11 -14 12 -23 2z"/>
<path d="M9460 838 c0 -18 18 -34 28 -24 3 4 -2 14 -11 23 -16 16 -17 16 -17
1z"/>
<path d="M11520 705 c0 -8 5 -15 10 -15 6 0 10 7 10 15 0 8 -4 15 -10 15 -5 0
-10 -7 -10 -15z"/>
<path d="M2733 443 c-15 -5 -18 -53 -3 -53 14 0 33 41 23 50 -4 4 -14 5 -20 3z"/>
<path d="M9790 388 c0 -8 7 -21 15 -28 19 -16 19 -1 0 24 -12 16 -15 17 -15 4z"/>
<path d="M497 274 c-14 -14 -7 -35 11 -32 9 2 17 10 17 17 0 16 -18 25 -28 15z"/>
<path d="M2526 128 c-9 -12 -14 -24 -12 -26 7 -7 46 23 46 35 0 20 -17 15 -34
-9z"/>
</g>
</svg>
